<svg width="431" height="374" viewBox="0 0 431 374" fill="none" xmlns="http://www.w3.org/2000/svg">
<g clip-path="url(#clip0_1459_3857)">
<path d="M344.781 259.448H316.052V288.177H344.781V259.448Z" fill="black"/>
<path d="M373.511 288.177H344.782V316.906H373.511V288.177Z" fill="black"/>
<path d="M402.24 259.448H373.511V288.177H402.24V259.448Z" fill="black"/>
<path d="M316.052 230.719H287.323V373.116H316.052V230.719Z" fill="black"/>
<path d="M430.969 230.719H402.24V373.116H430.969V230.719Z" fill="black"/>
<path d="M258.594 286.928H201.135V315.657H258.594V286.928Z" fill="black"/>
<path d="M229.865 344.387H172.406V373.116H229.865V344.387Z" fill="black"/>
<path d="M258.594 230.719H172.406V259.448H258.594V230.719Z" fill="black"/>
<path d="M258.594 315.657H229.865V373.116H258.594V315.657Z" fill="black"/>
<path d="M201.135 259.448H172.406V315.657H201.135V259.448Z" fill="black"/>
<path d="M143.677 230.719H57.4888V259.448H143.677V230.719Z" fill="black"/>
<path d="M57.4888 259.146H28.7595V287.875H57.4888V259.146Z" fill="black"/>
<path d="M57.4888 315H28.7595V343.729H57.4888V315Z" fill="black"/>
<path d="M143.677 315.657H114.948V344.386H143.677V315.657Z" fill="black"/>
<path d="M143.677 286.928H86.2183V315.657H143.677V286.928Z" fill="black"/>
<path d="M28.7596 286.875H0.0302734V314.98H28.7596V286.875Z" fill="black"/>
<path d="M143.677 344.387H57.4888V373.116H143.677V344.387Z" fill="black"/>
<mask id="mask0_1459_3857" style="mask-type:luminance" maskUnits="userSpaceOnUse" x="172" y="29" width="30" height="87">
<path d="M201.406 29.6134H172.677V115.801H201.406V29.6134Z" fill="white"/>
</mask>
<g mask="url(#mask0_1459_3857)">
<path d="M201.406 29.6134H172.677V115.801H201.406V29.6134Z" fill="black"/>
</g>
<mask id="mask1_1459_3857" style="mask-type:luminance" maskUnits="userSpaceOnUse" x="257" y="29" width="30" height="87">
<path d="M286.344 29.6134H257.615V115.801H286.344V29.6134Z" fill="white"/>
</mask>
<g mask="url(#mask1_1459_3857)">
<path d="M286.344 29.6134H257.615V115.801H286.344V29.6134Z" fill="black"/>
</g>
<mask id="mask2_1459_3857" style="mask-type:luminance" maskUnits="userSpaceOnUse" x="201" y="115" width="57" height="30">
<path d="M201.406 115.802V144.531H257.616V115.802H201.406Z" fill="white"/>
</mask>
<g mask="url(#mask2_1459_3857)">
<path d="M201.406 115.802V144.531H257.616V115.802H201.406Z" fill="black"/>
</g>
<mask id="mask3_1459_3857" style="mask-type:luminance" maskUnits="userSpaceOnUse" x="201" y="0" width="57" height="30">
<path d="M201.406 0.884104V29.6134H257.616V0.884104H201.406Z" fill="white"/>
</mask>
<g mask="url(#mask3_1459_3857)">
<path d="M201.406 0.884104V29.6134H257.616V0.884104H201.406Z" fill="black"/>
</g>
<mask id="mask4_1459_3857" style="mask-type:luminance" maskUnits="userSpaceOnUse" x="315" y="0" width="30" height="145">
<path d="M344.073 0.884094H315.344V144.53H344.073V0.884094Z" fill="white"/>
</mask>
<g mask="url(#mask4_1459_3857)">
<path d="M344.073 0.884094H315.344V144.53H344.073V0.884094Z" fill="black"/>
</g>
<mask id="mask5_1459_3857" style="mask-type:luminance" maskUnits="userSpaceOnUse" x="344" y="0" width="57" height="30">
<path d="M344.074 0.884104V29.6134H400.283V0.884104H344.074Z" fill="white"/>
</mask>
<g mask="url(#mask5_1459_3857)">
<path d="M344.074 0.884104V29.6134H400.283V0.884104H344.074Z" fill="black"/>
</g>
<mask id="mask6_1459_3857" style="mask-type:luminance" maskUnits="userSpaceOnUse" x="344" y="58" width="57" height="30">
<path d="M344.074 58.3426V87.0719H400.283V58.3426H344.074Z" fill="white"/>
</mask>
<g mask="url(#mask6_1459_3857)">
<path d="M344.074 58.3426V87.0719H400.283V58.3426H344.074Z" fill="black"/>
</g>
<mask id="mask7_1459_3857" style="mask-type:luminance" maskUnits="userSpaceOnUse" x="344" y="115" width="57" height="30">
<path d="M344.074 115.802V144.531H400.283V115.802H344.074Z" fill="white"/>
</mask>
<g mask="url(#mask7_1459_3857)">
<path d="M344.074 115.802V144.531H400.283V115.802H344.074Z" fill="black"/>
</g>
<mask id="mask8_1459_3857" style="mask-type:luminance" maskUnits="userSpaceOnUse" x="400" y="29" width="30" height="30">
<path d="M400.283 29.6134V58.3427H429.012V29.6134H400.283Z" fill="white"/>
</mask>
<g mask="url(#mask8_1459_3857)">
<path d="M400.283 29.6134V58.3427H429.012V29.6134H400.283Z" fill="black"/>
</g>
<mask id="mask9_1459_3857" style="mask-type:luminance" maskUnits="userSpaceOnUse" x="400" y="87" width="30" height="29">
<path d="M400.283 87.0716V115.801H429.012V87.0716H400.283Z" fill="white"/>
</mask>
<g mask="url(#mask9_1459_3857)">
<path d="M400.283 87.0716V115.801H429.012V87.0716H400.283Z" fill="black"/>
</g>
<mask id="mask10_1459_3857" style="mask-type:luminance" maskUnits="userSpaceOnUse" x="0" y="0" width="29" height="145">
<path d="M28.7596 0.884094H0.0302734V144.53H28.7596V0.884094Z" fill="white"/>
</mask>
<g mask="url(#mask10_1459_3857)">
<path d="M28.7596 0.884094H0.0302734V144.53H28.7596V0.884094Z" fill="black"/>
</g>
<mask id="mask11_1459_3857" style="mask-type:luminance" maskUnits="userSpaceOnUse" x="114" y="0" width="30" height="145">
<path d="M143.676 0.884094H114.947V144.53H143.676V0.884094Z" fill="white"/>
</mask>
<g mask="url(#mask11_1459_3857)">
<path d="M143.676 0.884094H114.947V144.53H143.676V0.884094Z" fill="black"/>
</g>
<mask id="mask12_1459_3857" style="mask-type:luminance" maskUnits="userSpaceOnUse" x="28" y="30" width="30" height="30">
<path d="M57.4888 30.8625H28.7595V59.5918H57.4888V30.8625Z" fill="white"/>
</mask>
<g mask="url(#mask12_1459_3857)">
<path d="M57.4888 30.8625H28.7595V59.5918H57.4888V30.8625Z" fill="black"/>
</g>
<mask id="mask13_1459_3857" style="mask-type:luminance" maskUnits="userSpaceOnUse" x="57" y="59" width="30" height="30">
<path d="M86.2181 59.5918H57.4888V88.3211H86.2181V59.5918Z" fill="white"/>
</mask>
<g mask="url(#mask13_1459_3857)">
<path d="M86.2181 59.5918H57.4888V88.3211H86.2181V59.5918Z" fill="black"/>
</g>
<mask id="mask14_1459_3857" style="mask-type:luminance" maskUnits="userSpaceOnUse" x="86" y="30" width="29" height="30">
<path d="M114.947 30.8625H86.218V59.5918H114.947V30.8625Z" fill="white"/>
</mask>
<g mask="url(#mask14_1459_3857)">
<path d="M114.947 30.8625H86.218V59.5918H114.947V30.8625Z" fill="black"/>
</g>
</g>
<defs>
<clipPath id="clip0_1459_3857">
<rect width="431" height="374" fill="white"/>
</clipPath>
</defs>
</svg>
